# Made in Blockbench 5.0.7
mtllib bush.mtl

o plane
v 0.8535533905932742 -6.072480893489959e-16 0.20894660940672727
v 0.8535533905932743 0.9999999999999993 0.2089466094067256
v 0.14644660940672655 6.139972377386764e-16 0.9160533905932747
v 0.14644660940672666 1.0000000000000004 0.9160533905932731
v 0.8535533905932724 6.695083889699334e-16 0.9160533905932742
v 0.8535533905932726 1.0000000000000004 0.9160533905932724
v 0.14644660940672607 -5.517369381177374e-16 0.20894660940672757
v 0.1464466094067261 0.9999999999999994 0.20894660940672566
vt 0.08333333333333333 0.9375
vt 0.08333333333333333 0.9583333333333334
vt 0.0625 0.9583333333333334
vt 0.0625 0.9375
vt 0.08333333333333333 0.9375
vt 0.08333333333333333 0.9583333333333334
vt 0.0625 0.9583333333333334
vt 0.0625 0.9375
vn 0.7071067811865475 1.0990647210786425e-15 0.7071067811865476
vn -0.7071067811865477 1.3670962694095356e-15 0.7071067811865475
usemtl m_f1423441-ab23-31ee-5eba-46aa008b1275
f 1/1/1 2/2/1 4/3/1 3/4/1
f 5/5/2 6/6/2 8/7/2 7/8/2