# Made in Blockbench 5.0.7
mtllib dead_bush.mtl

o plane
v 0.8535534569294021 1.162177992730662e-16 0.20894696024845705
v 0.8535534569294021 1.0000000000000002 0.20894696024845671
v 0.14644667574285453 2.2724010173558185e-16 0.9160537414350045
v 0.14644667574285453 1.0000000000000002 0.9160537414350042
v 0.8535534569294021 2.827512529668397e-16 0.9160537414350045
v 0.8535534569294021 1.0000000000000002 0.9160537414350042
v 0.1464466757428546 6.070664804180836e-17 0.20894696024845708
v 0.1464466757428546 1 0.20894696024845674
vt 0.10416666666666667 0.9166666666666666
vt 0.10416666666666667 0.9375
vt 0.08333333333333333 0.9375
vt 0.08333333333333333 0.9166666666666666
vt 0.10416666666666667 0.9166666666666666
vt 0.10416666666666667 0.9375
vt 0.08333333333333333 0.9375
vt 0.08333333333333333 0.9166666666666666
vn 0.7071067811865475 2.355138688025663e-16 0.7071067811865476
vn -0.7071067811865476 2.355138688025663e-16 0.7071067811865476
usemtl m_f1423441-ab23-31ee-5eba-46aa008b1275
f 1/1/1 2/2/1 4/3/1 3/4/1
f 5/5/2 6/6/2 8/7/2 7/8/2