# Made in Blockbench 5.0.7
mtllib chest.mtl

o mesh
v 0.9375 0.875 0.9375
v 0.9375 0.875 0.0625
v 0.9375 0 0.9375
v 0.9375 0 0.0625
v 0.0625 0.875 0.9375
v 0.0625 0.875 0.0625
v 0.0625 0 0.9375
v 0.0625 0 0.0625
v 1.0625 0.59375 0.625
v 1.0625 0.59375 0.375
v 1.0625 0.34375 0.625
v 1.0625 0.34375 0.375
v 0.9375 0.59375 0.625
v 0.9375 0.59375 0.375
v 0.9375 0.34375 0.625
v 0.9375 0.34375 0.375
vt 0.18489583333333334 0.9166666666666666
vt 0.16666666666666666 0.9166666666666666
vt 0.16666666666666666 0.8984375
vt 0.18489583333333334 0.8984375
vt 0.18489583333333334 0.8984375
vt 0.18489583333333334 0.9166666666666666
vt 0.16666666666666666 0.9166666666666666
vt 0.16666666666666666 0.8984375
vt 0.14583333333333334 0.8984375
vt 0.1640625 0.8984375
vt 0.1640625 0.9166666666666666
vt 0.14583333333333334 0.9166666666666666
vt 0.1640625 0.8984375
vt 0.1640625 0.9166666666666666
vt 0.14583333333333334 0.9166666666666666
vt 0.14583333333333334 0.8984375
vt 0.18489583333333334 0.8984375
vt 0.18489583333333334 0.9166666666666666
vt 0.16666666666666666 0.9166666666666666
vt 0.16666666666666666 0.8984375
vt 0.18489583333333334 0.9166666666666666
vt 0.16666666666666666 0.9166666666666666
vt 0.16666666666666666 0.8984375
vt 0.18489583333333334 0.8984375
vt 0.19010416666666666 0.9088541666666666
vt 0.18489583333333334 0.9088541666666666
vt 0.18489583333333334 0.9036458333333334
vt 0.19010416666666666 0.9036458333333334
vt 0.005208333333333333 0.9947916666666666
vt 0.005208333333333333 1
vt 0 1
vt 0 0.9947916666666666
vt 0.18489583333333334 0.9153645833333334
vt 0.18489583333333334 0.9153645833333334
vt 0.18489583333333334 0.9166666666666666
vt 0.18489583333333334 0.9166666666666666
vt 0.18619791666666666 0.9036458333333334
vt 0.18619791666666666 0.9049479166666666
vt 0.18489583333333334 0.9049479166666666
vt 0.18489583333333334 0.9036458333333334
vt 0.18489583333333334 0.9036458333333334
vt 0.18489583333333334 0.9088541666666666
vt 0.18489583333333334 0.9088541666666666
vt 0.18489583333333334 0.9036458333333334
vt 0.18619791666666666 0.9088541666666666
vt 0.18489583333333334 0.9088541666666666
vt 0.18489583333333334 0.9036458333333334
vt 0.18619791666666666 0.9036458333333334
vn 1 0 0
vn -1 0 0
vn 0 1 0
vn 0 -1 0
vn 0 0 1
vn 0 0 -1
vn 1 0 0
vn -1 0 0
vn 0 1 0
vn 0 -1 0
vn 0 0 1
vn 0 0 -1
usemtl m_c1b85cfd-d4d4-f63c-ede3-1e4850eba854
f 2/1/1 1/2/1 3/3/1 4/4/1
f 7/5/2 5/6/2 6/7/2 8/8/2
f 5/9/3 1/10/3 2/11/3 6/12/3
f 4/13/4 3/14/4 7/15/4 8/16/4
f 3/17/5 1/18/5 5/19/5 7/20/5
f 6/21/6 2/22/6 4/23/6 8/24/6
f 10/25/7 9/26/7 11/27/7 12/28/7
f 15/29/8 13/30/8 14/31/8 16/32/8
f 13/33/9 9/34/9 10/35/9 14/36/9
f 12/37/10 11/38/10 15/39/10 16/40/10
f 11/41/11 9/42/11 13/43/11 15/44/11
f 14/45/12 10/46/12 12/47/12 16/48/12