# Made in Blockbench 5.0.7
mtllib little_stone.mtl

o mesh
v 0.8125 0.1875 0.6875
v 0.8125 0.1875 0.3125
v 0.8125 0 0.6875
v 0.8125 0 0.3125
v 0.1875 0.1875 0.6875
v 0.1875 0.1875 0.3125
v 0.1875 0 0.6875
v 0.1875 0 0.3125
vt 0.0078125 0.9713541666666666
vt 0 0.9713541666666666
vt 0 0.9674479166666666
vt 0.0078125 0.9674479166666666
vt 0.0078125 0.9674479166666666
vt 0.0078125 0.9713541666666666
vt 0 0.9713541666666666
vt 0 0.9674479166666666
vt 0 0.9635416666666666
vt 0.013020833333333334 0.9635416666666666
vt 0.013020833333333334 0.9713541666666666
vt 0 0.9713541666666666
vt 0.013020833333333334 0.9635416666666666
vt 0.013020833333333334 0.9713541666666666
vt 0 0.9713541666666666
vt 0 0.9635416666666666
vt 0.013020833333333334 0.9674479166666666
vt 0.013020833333333334 0.9713541666666666
vt 0 0.9713541666666666
vt 0 0.9674479166666666
vt 0.013020833333333334 0.9713541666666666
vt 0 0.9713541666666666
vt 0 0.9674479166666666
vt 0.013020833333333334 0.9674479166666666
vn 1 0 0
vn -1 0 0
vn 0 1 0
vn 0 -1 0
vn 0 0 1
vn 0 0 -1
usemtl m_35e60939-ca0a-a74d-58f2-34c9f2842803
f 2/1/1 1/2/1 3/3/1 4/4/1
f 7/5/2 5/6/2 6/7/2 8/8/2
f 5/9/3 1/10/3 2/11/3 6/12/3
f 4/13/4 3/14/4 7/15/4 8/16/4
f 3/17/5 1/18/5 5/19/5 7/20/5
f 6/21/6 2/22/6 4/23/6 8/24/6